<svg width="20" height="20" viewBox="0 0 20 20" fill="none" xmlns="http://www.w3.org/2000/svg">
<path d="M12.9078 14.3178C11.3005 15.5663 9.27772 16.1554 7.25139 15.9649C5.22505 15.7744 3.34749 14.8188 2.001 13.2926C0.654508 11.7664 -0.0596609 9.78441 0.00390671 7.75014C0.0674743 5.71587 0.903998 3.7823 2.34315 2.34315C3.7823 0.903998 5.71587 0.0674743 7.75014 0.00390671C9.78441 -0.0596609 11.7664 0.654508 13.2926 2.001C14.8188 3.34749 15.7744 5.22505 15.9649 7.25139C16.1554 9.27772 15.5663 11.3005 14.3178 12.9078L19.6678 18.2378L18.2478 19.6578L12.9178 14.3178H12.9078ZM8.00776 13.9978C8.79569 13.9978 9.5759 13.8426 10.3039 13.541C11.0318 13.2395 11.6932 12.7975 12.2504 12.2404C12.8075 11.6832 13.2495 11.0218 13.551 10.2939C13.8526 9.5659 14.0078 8.78569 14.0078 7.99776C14.0078 7.20982 13.8526 6.42961 13.551 5.70165C13.2495 4.9737 12.8075 4.31227 12.2504 3.75511C11.6932 3.19796 11.0318 2.75601 10.3039 2.45448C9.5759 2.15295 8.79569 1.99775 8.00776 1.99775C6.41646 1.99775 4.89033 2.6299 3.76511 3.75511C2.6399 4.88033 2.00775 6.40646 2.00775 7.99776C2.00775 9.58905 2.6399 11.1152 3.76511 12.2404C4.89033 13.3656 6.41646 13.9978 8.00776 13.9978Z" fill="black" fill-opacity="0.18"/>
</svg>
