<svg width="30" height="30" viewBox="0 0 30 30" fill="none" xmlns="http://www.w3.org/2000/svg">
<rect width="30" height="30" rx="4" fill="#2470D8"/>
<path d="M23 16V23C23 23.5304 22.7893 24.0391 22.4142 24.4142C22.0391 24.7893 21.5304 25 21 25C20.4696 25 19.9609 24.7893 19.5858 24.4142C19.2107 24.0391 19 23.5304 19 23V18H17V8C17 7.20435 17.3161 6.44129 17.8787 5.87868C18.4413 5.31607 19.2044 5 20 5H23V16ZM9 15C8.46957 15 7.96086 14.7893 7.58579 14.4142C7.21071 14.0391 7 13.5304 7 13V6C7 5.73478 7.10536 5.48043 7.29289 5.29289C7.48043 5.10536 7.73478 5 8 5C8.26522 5 8.51957 5.10536 8.70711 5.29289C8.89464 5.48043 9 5.73478 9 6V10H10V6C10 5.73478 10.1054 5.48043 10.2929 5.29289C10.4804 5.10536 10.7348 5 11 5C11.2652 5 11.5196 5.10536 11.7071 5.29289C11.8946 5.48043 12 5.73478 12 6V10H13V6C13 5.73478 13.1054 5.48043 13.2929 5.29289C13.4804 5.10536 13.7348 5 14 5C14.2652 5 14.5196 5.10536 14.7071 5.29289C14.8946 5.48043 15 5.73478 15 6V13C15 13.5304 14.7893 14.0391 14.4142 14.4142C14.0391 14.7893 13.5304 15 13 15V23C13 23.5304 12.7893 24.0391 12.4142 24.4142C12.0391 24.7893 11.5304 25 11 25C10.4696 25 9.96086 24.7893 9.58579 24.4142C9.21071 24.0391 9 23.5304 9 23V15Z" fill="white"/>
</svg>
